<svg id="Layer_1" data-name="Layer 1" xmlns="http://www.w3.org/2000/svg" viewBox="0 0 53.28 81"><defs><style>.cls-1{fill:#ef9748;}.cls-2{fill:#513b33;}.cls-3{fill:#684b43;}.cls-4{fill:#f4b456;}.cls-5{fill:#ffada9;}.cls-6{fill:#4c372f;}.cls-7{fill:#e0ac79;}.cls-8{fill:#60453c;}.cls-9{fill:#8e4b19;}</style></defs><path class="cls-1" d="M47.57,16.66c-5.74.31-13.27,5-13,12.49.72,17.12,7.18,22.28,15,22.69,8.35.43,15.16-7.45,15-20.42C64.61,20.06,58,16.1,47.57,16.66Z" transform="translate(-22.72 -9)"/><path class="cls-1" d="M61.62,64.42c-1.21-8.93-3-12-5.23-17.59l-15.77-.06S36.51,56.48,36,64.19c-.39,5.94,0,12,3.12,22.85.66,2.37,5.17,1.44,5.23.41.14-2.31.49-7.77,3.08-8.21a22.06,22.06,0,0,1,4.26.31c1.95.66,2.65,3.84,2.09,7.28-.3,1.7,5.05,2.35,5.4.79C61.62,76.59,62.21,68.69,61.62,64.42Z" transform="translate(-22.72 -9)"/><path class="cls-2" d="M38.87,86.32a3.34,3.34,0,0,0,2,.68c2.79.12,3.59-.89,3.59-.89s.64,1.63.35,2.09c-.62,1-3,1.89-5.52.63C38.59,88.52,38.87,86.32,38.87,86.32Z" transform="translate(-22.72 -9)"/><path class="cls-3" d="M40.94,87.62a1.17,1.17,0,0,0-1.21-.46l.07-.08c-.5-.08-.46.93-.31,1.22s.86.47,1.23.45C41.38,88.73,41.33,88,40.94,87.62Z" transform="translate(-22.72 -9)"/><path class="cls-2" d="M53.8,86.5a3.57,3.57,0,0,0,1.85.93c2.75.46,3.67-.43,3.67-.43s.43,1.71.08,2.12c-.74.85-3.24,1.49-5.56-.08C53.25,88.63,53.8,86.5,53.8,86.5Z" transform="translate(-22.72 -9)"/><path class="cls-3" d="M55.69,88.05a1.22,1.22,0,0,0-1.15-.62l.08-.06c-.49-.14-.59.87-.47,1.16s.78.57,1.17.61C56,89.21,56,88.5,55.69,88.05Z" transform="translate(-22.72 -9)"/><path class="cls-4" d="M44.45,48.35s-2.87,7.9-2.87,11.43-.47,12.14,7.47,12.14c7.15,0,8.75-6.88,8-12.47a39.75,39.75,0,0,0-3.22-10.64Z" transform="translate(-22.72 -9)"/><path class="cls-1" d="M36.45,25.79s-2.7-3.44-6.07-3.65-7.5,1-7.65,2.25,3.39,5,5.85,5.34,7.52-.54,7.52-.54Z" transform="translate(-22.72 -9)"/><path class="cls-5" d="M34.92,25.81A9.63,9.63,0,0,0,31,23.92c-2-.25-5.91-.07-6.16.76s2,3,3.94,3.32a24.78,24.78,0,0,0,6-.35Z" transform="translate(-22.72 -9)"/><path class="cls-1" d="M62.4,24.74s2.44-3.63,5.8-4.08,7.53.45,7.79,1.69-3,5.26-5.45,5.75-7.53,0-7.53,0Z" transform="translate(-22.72 -9)"/><path class="cls-5" d="M63.93,24.66a9.57,9.57,0,0,1,3.78-2.15c2-.39,5.9-.51,6.21.33S72.08,26,70.23,26.43a25.68,25.68,0,0,1-6,.08Z" transform="translate(-22.72 -9)"/><path class="cls-4" d="M42.54,17.93a5.68,5.68,0,0,1,3.76,4c.78,2.83.82,10.91.82,10.91l6.42-.16s-.15-10.07.9-11.9a5.23,5.23,0,0,1,3.4-2.54,19,19,0,0,0-7.52-1.85A18.69,18.69,0,0,0,42.54,17.93Z" transform="translate(-22.72 -9)"/><ellipse class="cls-6" cx="19.52" cy="17.64" rx="0.92" ry="0.91"/><path class="cls-6" d="M41.83,22.8c-.45.12-2.38.7-2,1.42.1.17.3.19,1.8-.47C42.71,23.25,42.3,22.66,41.83,22.8Z" transform="translate(-22.72 -9)"/><path class="cls-1" d="M28.27,69.35a4.45,4.45,0,0,0,.92-1.22,21,21,0,0,1,3.74-4.93c1.6-1.42,4.12-3.13,6.29-3.05l-.08-8.93c-.23-.35-4.59,2.12-8.27,6.14-4.06,4.4-4,7.64-4.71,10.48C25.87,69,27.82,69.7,28.27,69.35Z" transform="translate(-22.72 -9)"/><path class="cls-2" d="M29.58,67.51a3.51,3.51,0,0,1-1.41-.16,3.43,3.43,0,0,1-1.64-1.18s-1.11,1.59-1,2.15a2.44,2.44,0,0,0,2.69,1.31C29.13,69.28,29.58,67.51,29.58,67.51Z" transform="translate(-22.72 -9)"/><path class="cls-3" d="M27.16,69.12c.13.33.56.27.82.31l0,0c.52.12,1-.77,1-1.2s-.45-.35-.68-.37-.45.15-.6.43S27,68.83,27.16,69.12Z" transform="translate(-22.72 -9)"/><path class="cls-1" d="M68.65,69.8a4,4,0,0,1-.9-1.24,22,22,0,0,0-3.69-5c-1.58-1.44-4.08-3.19-6.24-3.13L58,51.51c.24-.33,4.57,2.18,8.2,6.23,4,4.47,3.86,7.69,4.58,10.55C71.05,69.43,69.08,70.13,68.65,69.8Z" transform="translate(-22.72 -9)"/><path class="cls-2" d="M67.36,67.94a4,4,0,0,0,1.41-.14,3.48,3.48,0,0,0,1.65-1.16s1.1,1.61.94,2.17a2.44,2.44,0,0,1-2.71,1.28C67.79,69.7,67.36,67.94,67.36,67.94Z" transform="translate(-22.72 -9)"/><path class="cls-3" d="M69.76,69.57c-.14.33-.57.25-.82.29l0,0c-.53.12-1-.8-1-1.22s.45-.33.69-.37.45.17.6.42S69.88,69.28,69.76,69.57Z" transform="translate(-22.72 -9)"/><ellipse class="cls-6" cx="34.74" cy="17.2" rx="0.92" ry="0.91"/><path class="cls-6" d="M57.56,22.51c.45.08,2.44.48,2.19,1.22-.1.18-.27.23-1.82-.29C56.72,23.05,57.09,22.43,57.56,22.51Z" transform="translate(-22.72 -9)"/><path class="cls-7" d="M49.25,32.12c-9.51,0-12.63,6.46-12.73,9.49-.11,3.94,6.25,8.85,13.3,8.81,7.7,0,13.38-3,13.27-8.4C63,35.17,57.54,32.12,49.25,32.12Z" transform="translate(-22.72 -9)"/><path class="cls-6" d="M45.21,34a2.8,2.8,0,0,0,2.42,2.12c.76.15,1.78,1.57,2.52,1.57,1.42,0,1.75-1.55,3-1.81s2-.68,2.15-1.41c.25-1.17-.94-2.64-4.74-2.59C47.47,31.9,45.09,32.35,45.21,34Z" transform="translate(-22.72 -9)"/><path class="cls-8" d="M46.42,34.43c.33.5.92.06,1.31-.14a3.74,3.74,0,0,1,1.58-.48c.49,0,1.73-.1,1.36-.92s-1.23-.5-1.81-.44a4.2,4.2,0,0,0-2,.46c-.55.35-1,1.11-.43,1.63Z" transform="translate(-22.72 -9)"/><path class="cls-6" d="M54.28,40.66a.17.17,0,0,0-.23-.12,3,3,0,0,1-1.5.06A2.52,2.52,0,0,1,50.73,39a8.91,8.91,0,0,1-.19-2.33.2.2,0,0,0-.12-.19.21.21,0,0,0-.19-.14.24.24,0,0,0-.18.23A9.33,9.33,0,0,1,50,38.93a2.61,2.61,0,0,1-1.72,1.73,2.92,2.92,0,0,1-1.5,0,.17.17,0,0,0-.23.13.2.2,0,0,0,.11.26,2.72,2.72,0,0,0,.71.09,4.49,4.49,0,0,0,1-.13,3,3,0,0,0,2-2s0,.08,0,.09A2.91,2.91,0,0,0,52.47,41a3.53,3.53,0,0,0,1,.06,3.58,3.58,0,0,0,.71-.14A.24.24,0,0,0,54.28,40.66Z" transform="translate(-22.72 -9)"/><path class="cls-5" d="M42.93,37.07a1.78,1.78,0,1,1-1.78-1.77A1.77,1.77,0,0,1,42.93,37.07Z" transform="translate(-22.72 -9)"/><path class="cls-5" d="M61,37.32a1.78,1.78,0,1,1-1.78-1.77A1.78,1.78,0,0,1,61,37.32Z" transform="translate(-22.72 -9)"/><path class="cls-1" d="M43.43,20.12c-.11-.85-2-1.81-2.59-2.6a17.36,17.36,0,0,1-2.52-3.73c-.49-1.18-1-2.93-3-2.48-1.73.38-1.34,1.82-.68,2.87.78,1.26,1.76,2.41,2.48,3.71.59,1.06,1.25,3,.35,4Z" transform="translate(-22.72 -9)"/><path class="cls-9" d="M38.77,11.17A3,3,0,0,0,36,9a3.43,3.43,0,0,0-3.67,1.71,2.81,2.81,0,0,0,.19,3.57,4.56,4.56,0,0,0,3.17,1.29,2.46,2.46,0,0,1,2.86-1.44A4.86,4.86,0,0,0,38.77,11.17Z" transform="translate(-22.72 -9)"/><path class="cls-1" d="M56.7,20.33c.18-.83,2.11-1.65,2.78-2.42a18.44,18.44,0,0,0,2.77-3.56c.56-1.14,1.23-2.85,3.16-2.27,1.72.51,1.21,1.9.49,2.91C65,16.2,64,17.27,63.16,18.53c-.66,1-1.46,2.89-.62,4Z" transform="translate(-22.72 -9)"/><path class="cls-9" d="M62,11.71a3,3,0,0,1,2.93-1.94,3.41,3.41,0,0,1,3.55,2A2.77,2.77,0,0,1,68,15.27a4.57,4.57,0,0,1-3.24,1.06A2.46,2.46,0,0,0,62,14.7,4.64,4.64,0,0,1,62,11.71Z" transform="translate(-22.72 -9)"/><path class="cls-9" d="M41.17,50.6c-.23-.39-1.82-.49-2-.31a6.88,6.88,0,0,0-.64,2.52,9,9,0,0,0-.39,2.58A4.19,4.19,0,0,0,40,54.77c.49-.46.51-1.39.68-2S41.5,51.12,41.17,50.6Z" transform="translate(-22.72 -9)"/><path class="cls-9" d="M40.72,56.09a3.81,3.81,0,0,0-1.83.45l-.24.16c.1,0-.56.42-.78.66a1.34,1.34,0,0,0-.55,1.24c.08.37.51.77.65,1.12s.08,1,.53,1.17c.7.25,2.08-.78,2.22-1.46A13.82,13.82,0,0,0,40.72,56.09Z" transform="translate(-22.72 -9)"/><path class="cls-9" d="M38.42,64.69a8.37,8.37,0,0,0-.33-2.21c-.32-.56-1.16-.81-1.66-1.14v.23c-.49.29-.53,2.1-.53,2.74,0,1-.12,2.07-.06,3.12a5.51,5.51,0,0,0,1.68-1C38.46,65.9,38.61,65.82,38.42,64.69Z" transform="translate(-22.72 -9)"/><path class="cls-9" d="M40.9,67.43c-.1-.7-.3-2.11-1.33-1.67v-.15c-.59.46-1.33,1-1.31,1.82a1.42,1.42,0,0,0,1.54,1.46C41.05,68.89,41.05,68.54,40.9,67.43Z" transform="translate(-22.72 -9)"/><path class="cls-9" d="M39.43,70.13c-.33-.31-.9-.47-1.29-.8a8.15,8.15,0,0,1-.85-1v-.07c-1.39.38-1.12,1.55-1,2.6.16,1.41.31,2,1.91,1.9.88,0,1-.27,1.23-1.07C39.61,71.1,39.92,70.62,39.43,70.13Z" transform="translate(-22.72 -9)"/><path class="cls-9" d="M42.85,75.45a4.51,4.51,0,0,0-1-1.63c-1-.95-2.42,0-3.47.41-.22-.16-.69.25-.9.62-.57,1,.37,2.5,1.37,3,1.19.56,2.22-.25,3.14-.9C42.71,76.44,43.16,76.32,42.85,75.45Z" transform="translate(-22.72 -9)"/><path class="cls-9" d="M38.57,81.18c-.11-1.21-.31-1.34-1.38-1.67l-.16.23c.41.35.63,2.6.86,3.34C39.08,83.12,38.65,82,38.57,81.18Z" transform="translate(-22.72 -9)"/><path class="cls-9" d="M42.65,79.35c-1,.33-1.52.66-1.23,1.75.24.91.41,2,1.55,1.69a2.47,2.47,0,0,0,1.46-2c-.06-.53-1.23-1.38-1.78-1.38Z" transform="translate(-22.72 -9)"/><path class="cls-9" d="M40.12,82.09l.05,0,0,0Z" transform="translate(-22.72 -9)"/><path class="cls-9" d="M41.64,84.15a3.24,3.24,0,0,0-1.49-2c-.42.43-1,.87-1,1.49a7.14,7.14,0,0,0,.7,2.2,2.57,2.57,0,0,0,1.6-.06C41.76,85.47,41.72,84.67,41.64,84.15Z" transform="translate(-22.72 -9)"/><path class="cls-9" d="M59.05,54.23a6.64,6.64,0,0,0-.73-2.35,3.23,3.23,0,0,0-.52-.45S56,52.56,56.26,53.94a2.72,2.72,0,0,0,2.3,2.23c.64.1.74,0,.74-.68A5.86,5.86,0,0,0,59.05,54.23Z" transform="translate(-22.72 -9)"/><path class="cls-9" d="M59.57,57.14s0,0,0,0l0,0Z" transform="translate(-22.72 -9)"/><path class="cls-9" d="M60.41,59a7.88,7.88,0,0,0-.84-1.81c-.89.78-1.19,3.44.45,3.34C61.08,60.46,60.63,59.65,60.41,59Z" transform="translate(-22.72 -9)"/><path class="cls-9" d="M57.5,56.29h.12c-.72.08-.86.31-.74,1.08.08.51.29,1.09.92.92A1,1,0,0,0,57.5,56.29Z" transform="translate(-22.72 -9)"/><path class="cls-9" d="M61.17,62v0A4.23,4.23,0,0,0,59.09,63c-.49.61-.45,1.42-.8,2.14a11.3,11.3,0,0,0,1.85,1.2c.51.29,1.48,1,1.66.18A13.7,13.7,0,0,0,61.17,62Z" transform="translate(-22.72 -9)"/><path class="cls-9" d="M61.17,68.34a4.54,4.54,0,0,0-1.44-.83l.17-.12c-1.09-.11-1.63.92-1.89,1.83a2.93,2.93,0,0,0-.17,1.49c.17.43.87.8,1.26,1s1,.45,1.35.25.47-.89.57-1.16C61.23,70.15,61.8,68.91,61.17,68.34Z" transform="translate(-22.72 -9)"/><path class="cls-9" d="M61.64,71.92v-.06c-.25.21-.56.48-.82.74-.43.4-.58.52-.51,1s.34,1.93.92,2.16C61.49,74.87,62,72.83,61.64,71.92Z" transform="translate(-22.72 -9)"/><path class="cls-9" d="M57.78,72.54s0,0,0,0l.07,0Z" transform="translate(-22.72 -9)"/><path class="cls-9" d="M57.82,72.56a2.64,2.64,0,0,0-1.14.66,2.57,2.57,0,0,0,0,1.43c0,.31,0,1.11.33,1.32s1,0,1.34-.13c.88-.2.88-1,.92-1.83C59.28,72.93,58.66,73,57.82,72.56Z" transform="translate(-22.72 -9)"/><path class="cls-9" d="M60.39,77.33c-.11-.37-.91-1-1.23-.89l.24-.06a4,4,0,0,0-2.52,1.2c-.39.57-.62,2.08,0,2.55a2.44,2.44,0,0,0,1.39.27c.6,0,.68-.14,1-.62C59.65,79.1,60.67,78.15,60.39,77.33Z" transform="translate(-22.72 -9)"/><path class="cls-9" d="M58.75,82.09c0,.87.14,2,1.08,2.21a19.65,19.65,0,0,0,.76-4.23l.06-.06A2,2,0,0,0,58.75,82.09Z" transform="translate(-22.72 -9)"/><path class="cls-9" d="M57.86,83.68c0-.54-.49-.79-.88-1.2h-.06c-.84.11-1.23.21-1.13,1.14s.11,1.26,1.07,1.26C57.6,84.88,57.91,84.4,57.86,83.68Z" transform="translate(-22.72 -9)"/><path class="cls-9" d="M58.36,85l.06-.06c-.58.24-1.23.35-1.33,1s.16,1.15.86,1.15.86-.16,1-.92S59,85.29,58.36,85Z" transform="translate(-22.72 -9)"/><path class="cls-9" d="M33.87,54.52c-.16.93-.19,1.94.92,2.19a1.44,1.44,0,0,0,1.89-1.2A7.52,7.52,0,0,0,37,52.75c-.08-.71-.25-.56-.74-.19-.31.23-.6.47-.92.7s-1.48.91-1.5,1.26Z" transform="translate(-22.72 -9)"/><path class="cls-9" d="M34.85,59.16c-.1-.66-.37-1.77-1.21-1.65l0-.06c-.85.08-1.48.49-1.44,1.38s.14,1.86,1.27,1.65C34.4,60.29,35,60.27,34.85,59.16Z" transform="translate(-22.72 -9)"/><path class="cls-9" d="M30.77,60c-.12-.64-.57-.8-1.15-.62s-.57.56-.75.79v.06c.22.62.43,1,1.16.85A.87.87,0,0,0,30.77,60Z" transform="translate(-22.72 -9)"/><path class="cls-9" d="M30.59,62.36a.12.12,0,0,1,.08,0l0,0Z" transform="translate(-22.72 -9)"/><path class="cls-9" d="M30.67,62.33c-.6.68-1.17.83-.7,1.9.21.52.27.41.78.15.31-.15.6-.37.92-.5C31.76,63.47,31.12,62.29,30.67,62.33Z" transform="translate(-22.72 -9)"/><path class="cls-9" d="M28.56,63.57a1.47,1.47,0,0,0-.45-.23v-.12c-.76.19-.82,1.26-.56,1.94a2.34,2.34,0,0,0,.84-.06A3.47,3.47,0,0,0,28.56,63.57Z" transform="translate(-22.72 -9)"/><path class="cls-9" d="M62.13,54.07c-.33-.34-1.41-1.35-1.78-1.28l-.05,0c-.24.19-.75.48-.86.79s.17.95.27,1.32c.31,1,.37,1.88,1.72,1.77.72-.06,2.28.06,2.26-1C63.71,55.1,62.58,54.54,62.13,54.07Z" transform="translate(-22.72 -9)"/><path class="cls-9" d="M63.13,57.72v.06h.11Z" transform="translate(-22.72 -9)"/><path class="cls-9" d="M64.1,58.58c-.25-.23-.8-.49-1-.76,0,0,0,0,0-.06-1.1,0-1.7.28-1.84,1.44-.08.62.18.76.59,1.18.21.24.46.78.8.82a2.39,2.39,0,0,0,1.95-1.5C64.73,59.16,64.49,59,64.1,58.58Z" transform="translate(-22.72 -9)"/><path class="cls-9" d="M66.11,58.7l.06-.06c-1,0-1,.27-.86,1.2.06.33,0,.7.25.89a3.44,3.44,0,0,0,1.08.29C68.34,61.35,66.91,59.06,66.11,58.7Z" transform="translate(-22.72 -9)"/><path class="cls-9" d="M65.72,62.58c-.62,0-1.29.54-.82,1.2s1.07.41,1.62.39c0-.54-.57-1.13-.8-1.53Z" transform="translate(-22.72 -9)"/><path class="cls-9" d="M68.71,64l.11-.05c-.8-.08-1.11.46-1.19,1.16s.26,1,.9,1.19C69.68,66.6,69.86,64.25,68.71,64Z" transform="translate(-22.72 -9)"/><path class="cls-9" d="M50.05,16.39a7.42,7.42,0,0,0-3.14.25H47a.53.53,0,0,1-.12,0l-.14.06c-1.42.66-.93,1.48,0,2.53.51.58.55.71,1.31.54a5.92,5.92,0,0,0,1.6-.54C50.36,18.82,51,17,50.05,16.39Z" transform="translate(-22.72 -9)"/><path class="cls-9" d="M52.66,17.42c-1.26.06-1.56,1-1.91,2.14-.15.5-.29.93.1,1.39a1.56,1.56,0,0,0,1.6.37c.41-.23.64-.93,1-1.28s1.07-.66,1.17-.95C54.83,18.33,53.23,17.69,52.66,17.42Z" transform="translate(-22.72 -9)"/><path class="cls-9" d="M52.66,17.42Z" transform="translate(-22.72 -9)"/><path class="cls-9" d="M50.28,22.8c-.13-.6-.7-1.75-1.44-1.57h.08c-2.15,0-1.84,3.26.15,3.16C50.07,24.33,50.56,23.91,50.28,22.8Z" transform="translate(-22.72 -9)"/><path class="cls-9" d="M51.16,24.78h0Z" transform="translate(-22.72 -9)"/><path class="cls-9" d="M52.74,25.48c-.25-.7-1-.66-1.52-.7-.78.35-1,.56-.68,1.42.21.7.56,1.47,1.48,1.18A1.57,1.57,0,0,0,52.74,25.48Z" transform="translate(-22.72 -9)"/><path class="cls-9" d="M48.68,26.84l.08-.08c-1,.12-.84,1.18-.8,2,.08,1.2.94.89,1.93.74C52.24,29.07,50,27,48.68,26.84Z" transform="translate(-22.72 -9)"/><path class="cls-9" d="M51.32,29.83h0Z" transform="translate(-22.72 -9)"/><path class="cls-9" d="M51.34,29.83c-.67.05-1.92.68-1.31,1.49.31.43,1.89.33,2.38.14A1.35,1.35,0,0,0,51.34,29.83Z" transform="translate(-22.72 -9)"/></svg>