<svg id="Layer_1" data-name="Layer 1" xmlns="http://www.w3.org/2000/svg" viewBox="0 0 59.61 73"><defs><style>.cls-1{fill:#bcb8a2;}.cls-2{fill:#ffada9;}.cls-3{fill:#a5a28c;}.cls-4{fill:#8e8b7b;}.cls-5{fill:#4c372f;}.cls-6{fill:#e5e0c7;}</style></defs><path class="cls-1" d="M65.31,22.35a15.27,15.27,0,0,1,2.19-1c.85-.21,1.62-.56,2.48-.73a9.7,9.7,0,0,1,6.32,1.15c1.84,1.13,2.4,3.67,2.73,5.66a11.7,11.7,0,0,1-.77,7.15,10.26,10.26,0,0,1-2.64,4,10.78,10.78,0,0,1-4.44,2.13,8.11,8.11,0,0,1-6.78-1.94Z" transform="translate(-19.65 -16)"/><path class="cls-2" d="M73,25c-1.68-1-4.58-.15-6.13-.15L65.28,36.75a1.87,1.87,0,0,0-.62-.14,4.64,4.64,0,0,0,2,.26c2.27,0,4.3.46,6.24-1.08a7.17,7.17,0,0,0,2.36-4.93C75.53,28.8,74.94,26.2,73,25Z" transform="translate(-19.65 -16)"/><path class="cls-1" d="M31.76,24.59a16.63,16.63,0,0,0-2.37-.44c-.88,0-1.72-.12-2.59-.08A9.76,9.76,0,0,0,21,26.77c-1.48,1.56-1.39,4.15-1.22,6.17a11.53,11.53,0,0,0,2.53,6.73,10.66,10.66,0,0,0,3.55,3.2,11,11,0,0,0,4.84,1,8.15,8.15,0,0,0,6.08-3.57Z" transform="translate(-19.65 -16)"/><path class="cls-2" d="M31.71,27.37c-2.25,0-3.95,0-5.87,1.4a5,5,0,0,0-1.56,5.64,7.74,7.74,0,0,0,10.35,4.74,8,8,0,0,0,1.15-.69Z" transform="translate(-19.65 -16)"/><path class="cls-3" d="M66.6,61.81c-1.36-10.19-4.56-14-7-20.36L41.63,41.4S37,52.48,36.36,61.27c-.46,6.78-2.78,13.7.71,26.12.76,2.69,9.81,1.45,9.88.28.14-2.64-.74-6.54,2.22-7a24,24,0,0,1,5.22-.12c2.1.52,2.81,2.67,2.15,6.58-.33,2,9,2.21,9.38.44A64.56,64.56,0,0,0,66.6,61.81Z" transform="translate(-19.65 -16)"/><path class="cls-3" d="M43,50.29c-.22,0-.22.18-.34.3l-2.54-2.46c-1.19.17-11.34,2-11.83,5.61a8.24,8.24,0,0,0,1.31,5.9c1.65,2,3.06.84,4.76-.22,2.06-1.3,4.56-1.11,6.69-2.31C44,55.45,43.5,53.26,43,50.29Z" transform="translate(-19.65 -16)"/><path class="cls-3" d="M58.9,55.73c.16-.18.28-.09.44-.11l-.55-3.47c.84-.88,8.2-8.08,11.43-6.4a8.25,8.25,0,0,1,4.06,4.49c.69,2.5-1.09,3-2.94,3.74-2.24.93-3.53,3.08-5.77,4.12C62.52,59.54,61.05,57.86,58.9,55.73Z" transform="translate(-19.65 -16)"/><path class="cls-2" d="M29.51,52.72c1.24-.85,2.53.35,2.86,2.34s.65,4.06-.26,4.88c-1.17,1.07-2.69-.7-3-2.87S28.37,53.49,29.51,52.72Z" transform="translate(-19.65 -16)"/><path class="cls-2" d="M69,46.14c-1.26.12-1.49,1.59.07,3.33s3.54,3.32,4.33,2.59.54-2.36-1.07-4C70.9,46.62,70.26,46,69,46.14Z" transform="translate(-19.65 -16)"/><path class="cls-2" d="M39,87c-.61,0-.79.77-.75,1.41a5.78,5.78,0,0,0,2,.51C40,88.11,40,86.92,39,87Z" transform="translate(-19.65 -16)"/><path class="cls-2" d="M46.13,88.37a2.71,2.71,0,0,0-.69-1.59c-.94-.65-.71,1.19-.71,1.92A11.65,11.65,0,0,0,46.13,88.37Z" transform="translate(-19.65 -16)"/><path class="cls-2" d="M43.35,87.83c-.25-.93-1.37-2-2.05-.65a16.71,16.71,0,0,0,0,1.8,20.08,20.08,0,0,0,2.46-.1A7.75,7.75,0,0,1,43.35,87.83Z" transform="translate(-19.65 -16)"/><path class="cls-2" d="M61.9,86.25c-1.31-.41-1.41,1.4-1.66,2.17a.84.84,0,0,1-.07.19,21,21,0,0,0,2.5.06C62.57,87.83,63.11,86.64,61.9,86.25Z" transform="translate(-19.65 -16)"/><path class="cls-2" d="M58.9,87.44c-.44-1-.95-.12-1.21.68a6.72,6.72,0,0,0,1.33.35C59,88.14,59.06,87.77,58.9,87.44Z" transform="translate(-19.65 -16)"/><path class="cls-2" d="M63.49,88.6A8,8,0,0,0,65,88.3c-.09-.68-.33-1.22-.91-1C63.9,87.39,63.7,88.05,63.49,88.6Z" transform="translate(-19.65 -16)"/><path class="cls-4" d="M44.33,44.91S42.23,55,42.56,59.59s2.78,9.58,9.31,9.49c6.71-.09,9.42-5.44,9-10.33s-3.6-14.87-3.6-14.87Z" transform="translate(-19.65 -16)"/><path class="cls-3" d="M46.75,16.88c-7.11.28-16.4,4.53-16,11.38.89,15.6,8.88,20.29,18.63,20.65C59.7,49.3,67.91,43.09,68,30.32,68,19.31,59.68,16.36,46.75,16.88Z" transform="translate(-19.65 -16)"/><path class="cls-5" d="M61.69,29a1,1,0,0,1-1.13.84,1,1,0,1,1,.3-2A1,1,0,0,1,61.69,29Z" transform="translate(-19.65 -16)"/><path class="cls-5" d="M61.43,24.82c.49.15,2.57.92,2.15,1.69-.12.18-.33.19-1.92-.63C60.44,25.25,60.93,24.64,61.43,24.82Z" transform="translate(-19.65 -16)"/><path class="cls-5" d="M39.07,31.49a1,1,0,1,1-2,.33,1,1,0,0,1,2-.33Z" transform="translate(-19.65 -16)"/><path class="cls-5" d="M36.93,27.56c-.45.21-2.44,1.19-2,1.91.14.15.35.15,1.85-.83C38,27.89,37.41,27.33,36.93,27.56Z" transform="translate(-19.65 -16)"/><path class="cls-2" d="M39.73,37.61a1.94,1.94,0,1,1-1.94-1.94A1.95,1.95,0,0,1,39.73,37.61Z" transform="translate(-19.65 -16)"/><path class="cls-2" d="M64.23,35.67a1.94,1.94,0,1,1-1.94-1.94A2,2,0,0,1,64.23,35.67Z" transform="translate(-19.65 -16)"/><path class="cls-5" d="M51.16,46.2a13.54,13.54,0,0,1-2.12,0c-5.31-.38-7.37-3.21-7.46-3.34a.25.25,0,0,1,.07-.36.26.26,0,0,1,.37.07s2,2.76,7.08,3.11a10.45,10.45,0,0,0,8.84-3.29.25.25,0,0,1,.36,0,.26.26,0,0,1,.06.37A10.42,10.42,0,0,1,51.16,46.2Z" transform="translate(-19.65 -16)"/><path class="cls-1" d="M64.11,20.45s-5.16-5.75-17-4.18c-12.7,1.68-15,7.31-15,7.31s5.05-3,8.57,1.69C42,27,45.09,33.17,45.36,37.21s0,8,.19,10.62c.37,5,1.92,11.17,2.67,12.46a5.58,5.58,0,0,0,5.61,2.08c2.36-.79,3.18-1.85,3.39-3.65.42-3.55-1.83-6.66-2.29-8.93-1.62-8.36.6-23,1.26-24.71C58.58,18.93,64.11,20.45,64.11,20.45Z" transform="translate(-19.65 -16)"/><path class="cls-2" d="M54.25,62.6c3.25-1.11,3.72-2.94,3.34-4.78s-2.41-3-5.16-2.28-5.1,2.34-4.51,4.43S50.79,63.77,54.25,62.6Z" transform="translate(-19.65 -16)"/><path class="cls-4" d="M50.39,58.77h0c-.84.26-.16,2.64.7,2.62S51.37,58.47,50.39,58.77Z" transform="translate(-19.65 -16)"/><path class="cls-4" d="M54.86,57.42h0c-.84.27-.16,2.64.7,2.62S55.84,57.13,54.86,57.42Z" transform="translate(-19.65 -16)"/><path class="cls-6" d="M48.4,56c1.48-1.73,4.07-2.16,6.23-2.18a.33.33,0,0,0,0-.65c-2.32,0-5.1.53-6.69,2.38-.28.31.19.77.46.45Z" transform="translate(-19.65 -16)"/><path class="cls-6" d="M48.27,52.18A5.06,5.06,0,0,1,53,50.57c.42.07.6-.56.18-.63a5.74,5.74,0,0,0-5.42,1.79c-.26.31.19.78.47.45Z" transform="translate(-19.65 -16)"/><path class="cls-6" d="M48,49a4.13,4.13,0,0,1,1.91-.78,3.83,3.83,0,0,1,2.34-.09c.37.19.7-.37.33-.56a4.05,4.05,0,0,0-2.53,0,5,5,0,0,0-2.5,1A.33.33,0,1,0,48,49Z" transform="translate(-19.65 -16)"/><path class="cls-6" d="M48.54,46.05a6.69,6.69,0,0,1,3-.47.33.33,0,0,0,0-.65,7.65,7.65,0,0,0-3.38.56c-.38.17-.05.73.34.56Z" transform="translate(-19.65 -16)"/><path class="cls-6" d="M49.18,43A3.11,3.11,0,0,1,51,42.62.32.32,0,0,0,51,42a3.6,3.6,0,0,0-2.33.56c-.31.26.14.71.47.45Z" transform="translate(-19.65 -16)"/><path class="cls-6" d="M49,40.49a2.45,2.45,0,0,1,1.31-.16c.42.07.6-.56.18-.63a3.32,3.32,0,0,0-1.82.23c-.39.18,0,.74.33.56Z" transform="translate(-19.65 -16)"/><path class="cls-6" d="M49.38,38.53a.64.64,0,0,1,.47-.1.34.34,0,0,0,.4-.23.32.32,0,0,0-.23-.4A1.35,1.35,0,0,0,49,38c-.35.24,0,.8.34.57Z" transform="translate(-19.65 -16)"/><path class="cls-6" d="M49.41,36.7a1.22,1.22,0,0,0,.56-.11.34.34,0,0,0,.12-.45.35.35,0,0,0-.45-.12s0,0,0,0-.1,0,0,0h-.17a.33.33,0,0,0-.33.33.35.35,0,0,0,.33.35Z" transform="translate(-19.65 -16)"/><path class="cls-3" d="M70.94,73.85a9,9,0,0,1-3.16.8c-.3,0-1.53-.14-1.26-.38l-2.29,1.62c.12.35.64.32,1,.33a13.73,13.73,0,0,0,6.27-1.5,10.44,10.44,0,0,0,3.86-3.3c-.42.59-.59.21-1.22.61A20.89,20.89,0,0,1,70.94,73.85Z" transform="translate(-19.65 -16)"/><path class="cls-4" d="M76.39,68.68c0,1-1.33,1.2-2.29,1.76-.45.28-2.13,1.1-1,2.78h0a1.9,1.9,0,0,0,3.18-.47,4.58,4.58,0,0,0,.4-2C76.7,70,76.41,69.41,76.39,68.68Z" transform="translate(-19.65 -16)"/><path class="cls-3" d="M73.73,72.68V72.5c.62.63,1.63-1.33,1.8-1.81C74.85,71.14,72.51,71.21,73.73,72.68Z" transform="translate(-19.65 -16)"/></svg>